{
  "accessors": [
    {
      "bufferView": 0,
      "componentType": 5126,
      "count": 238918,
      "type": "VEC3",
      "max": [
        1.0440821647644043,
        0.4114956259727478,
        0.894101619720459
      ],
      "min": [
        -1.0849541425704956,
        -1.1579550504684448,
        0.12675945460796356
      ]
    },
    {
      "bufferView": 1,
      "componentType": 5126,
      "count": 238918,
      "type": "VEC3",
      "max": [
        0.999991774559021,
        0.99999940395355225,
        0.99998903274536133
      ],
      "min": [
        -0.99999809265136719,
        -0.9999997615814209,
        -0.999906063079834
      ]
    },
    {
      "bufferView": 2,
      "componentType": 5126,
      "count": 238918,
      "type": "VEC4",
      "max": [
        0.9999992847442627,
        1.0,
        0.99997138977050781,
        1.0
      ],
      "min": [
        -0.99988651275634766,
        -0.99999821186065674,
        -0.9999852180480957,
        -1.0
      ]
    },
    {
      "bufferView": 3,
      "componentType": 5126,
      "count": 238918,
      "type": "VEC2",
      "max": [
        917.49627685546875,
        604.05889892578125
      ],
      "min": [
        -917.4287109375,
        -601.3089599609375
      ]
    },
    {
      "bufferView": 4,
      "componentType": 5125,
      "count": 889980,
      "type": "SCALAR",
      "max": [
        238917.0
      ],
      "min": [
        0.0
      ]
    },
    {
      "bufferView": 5,
      "componentType": 5126,
      "count": 51527,
      "type": "VEC3",
      "max": [
        1.1654518842697144,
        0.5795515775680542,
        0.835518479347229
      ],
      "min": [
        -1.1654518842697144,
        -1.1663367748260498,
        -4.8446654687950286E-08
      ]
    },
    {
      "bufferView": 6,
      "componentType": 5126,
      "count": 51527,
      "type": "VEC3",
      "max": [
        0.9999929666519165,
        0.9999924898147583,
        0.99999988079071045
      ],
      "min": [
        -0.99998414516448975,
        -0.99999797344207764,
        -0.99999964237213135
      ]
    },
    {
      "bufferView": 7,
      "componentType": 5126,
      "count": 51527,
      "type": "VEC4",
      "max": [
        0.99999833106994629,
        1.0,
        0.99776852130889893,
        1.0
      ],
      "min": [
        -0.99998581409454346,
        -1.0,
        -1.0,
        -1.0
      ]
    },
    {
      "bufferView": 8,
      "componentType": 5126,
      "count": 51527,
      "type": "VEC2",
      "max": [
        0.62810635566711426,
        0.99949997663497925
      ],
      "min": [
        0.00050000002374872565,
        0.00049996376037597656
      ]
    },
    {
      "bufferView": 9,
      "componentType": 5123,
      "count": 148650,
      "type": "SCALAR",
      "max": [
        26236.0
      ],
      "min": [
        0.0
      ]
    },
    {
      "bufferView": 10,
      "componentType": 5123,
      "count": 147600,
      "type": "SCALAR",
      "max": [
        51526.0
      ],
      "min": [
        25822.0
      ]
    },
    {
      "bufferView": 11,
      "componentType": 5126,
      "count": 35363,
      "type": "VEC3",
      "max": [
        0.92316520214080811,
        1.1148892641067505,
        0.774869978427887
      ],
      "min": [
        -0.96450901031494141,
        -0.0361882783472538,
        0.36803075671195984
      ]
    },
    {
      "bufferView": 12,
      "componentType": 5126,
      "count": 35363,
      "type": "VEC3",
      "max": [
        0.9999997615814209,
        0.99999988079071045,
        1.0
      ],
      "min": [
        -0.99999988079071045,
        -0.99986600875854492,
        -1.0
      ]
    },
    {
      "bufferView": 13,
      "componentType": 5126,
      "count": 35363,
      "type": "VEC4",
      "max": [
        1.0,
        0.99609369039535522,
        0.99998772144317627,
        1.0
      ],
      "min": [
        -1.0,
        -0.9089430570602417,
        -0.9998924732208252,
        1.0
      ]
    },
    {
      "bufferView": 14,
      "componentType": 5126,
      "count": 35363,
      "type": "VEC2",
      "max": [
        0.97999989986419678,
        0.98000001907348633
      ],
      "min": [
        0.019999999552965164,
        0.20450878143310547
      ]
    },
    {
      "bufferView": 15,
      "componentType": 5123,
      "count": 208110,
      "type": "SCALAR",
      "max": [
        35362.0
      ],
      "min": [
        0.0
      ]
    },
    {
      "bufferView": 16,
      "componentType": 5126,
      "count": 8175,
      "type": "VEC3",
      "max": [
        0.814906895160675,
        0.77344328165054321,
        1.1413651704788208
      ],
      "min": [
        0.029465140774846077,
        0.54608094692230225,
        0.73870998620986938
      ]
    },
    {
      "bufferView": 17,
      "componentType": 5126,
      "count": 8175,
      "type": "VEC3",
      "max": [
        0.99899071455001831,
        0.99999547004699707,
        0.99976485967636108
      ],
      "min": [
        -0.99920719861984253,
        -0.9999922513961792,
        -0.99999213218688965
      ]
    },
    {
      "bufferView": 18,
      "componentType": 5126,
      "count": 8175,
      "type": "VEC4",
      "max": [
        0.99999868869781494,
        0.99981528520584106,
        0.71274197101593018,
        1.0
      ],
      "min": [
        -0.62644302845001221,
        -0.99983251094818115,
        -0.8633962869644165,
        1.0
      ]
    },
    {
      "bufferView": 19,
      "componentType": 5126,
      "count": 8175,
      "type": "VEC2",
      "max": [
        0.851489245891571,
        0.98000001907348633
      ],
      "min": [
        0.019999999552965164,
        0.020000100135803223
      ]
    },
    {
      "bufferView": 20,
      "componentType": 5123,
      "count": 47976,
      "type": "SCALAR",
      "max": [
        8174.0
      ],
      "min": [
        0.0
      ]
    },
    {
      "bufferView": 21,
      "componentType": 5126,
      "count": 8262,
      "type": "VEC3",
      "max": [
        0.0036505125463008881,
        0.78077602386474609,
        1.1401252746582031
      ],
      "min": [
        -0.78306949138641357,
        0.54908698797225952,
        0.744935154914856
      ]
    },
    {
      "bufferView": 22,
      "componentType": 5126,
      "count": 8262,
      "type": "VEC3",
      "max": [
        0.99945813417434692,
        0.99998259544372559,
        0.99996113777160645
      ],
      "min": [
        -0.99943643808364868,
        -0.999980092048645,
        -0.99998629093170166
      ]
    },
    {
      "bufferView": 23,
      "componentType": 5126,
      "count": 8262,
      "type": "VEC4",
      "max": [
        0.99998664855957031,
        0.99980241060256958,
        0.95145803689956665,
        1.0
      ],
      "min": [
        -0.66929858922958374,
        -0.99998307228088379,
        -0.978346586227417,
        1.0
      ]
    },
    {
      "bufferView": 24,
      "componentType": 5126,
      "count": 8262,
      "type": "VEC2",
      "max": [
        0.82906174659729,
        0.98000001907348633
      ],
      "min": [
        0.019999999552965164,
        0.020000040531158447
      ]
    },
    {
      "bufferView": 25,
      "componentType": 5123,
      "count": 48000,
      "type": "SCALAR",
      "max": [
        8261.0
      ],
      "min": [
        0.0
      ]
    },
    {
      "bufferView": 26,
      "componentType": 5126,
      "count": 7986,
      "type": "VEC3",
      "max": [
        -0.025133628398180008,
        0.97989708185195923,
        1.2794420719146729
      ],
      "min": [
        -0.75754821300506592,
        0.7195284366607666,
        0.74288457632064819
      ]
    },
    {
      "bufferView": 27,
      "componentType": 5126,
      "count": 7986,
      "type": "VEC3",
      "max": [
        0.99999010562896729,
        0.99997591972351074,
        0.99999797344207764
      ],
      "min": [
        -0.99958187341690063,
        -0.99998855590820313,
        -0.99995768070220947
      ]
    },
    {
      "bufferView": 28,
      "componentType": 5126,
      "count": 7986,
      "type": "VEC4",
      "max": [
        1.0,
        0.999958872795105,
        0.942081868648529,
        1.0
      ],
      "min": [
        -0.76364094018936157,
        -0.99997162818908691,
        -0.93260586261749268,
        1.0
      ]
    },
    {
      "bufferView": 29,
      "componentType": 5126,
      "count": 7986,
      "type": "VEC2",
      "max": [
        0.55882835388183594,
        0.98000001907348633
      ],
      "min": [
        0.019999999552965164,
        0.020000100135803223
      ]
    },
    {
      "bufferView": 30,
      "componentType": 5123,
      "count": 46800,
      "type": "SCALAR",
      "max": [
        7985.0
      ],
      "min": [
        0.0
      ]
    },
    {
      "bufferView": 31,
      "componentType": 5126,
      "count": 7986,
      "type": "VEC3",
      "max": [
        0.771583616733551,
        0.978028416633606,
        1.2879635095596313
      ],
      "min": [
        0.034569550305604935,
        0.72575294971466064,
        0.7415701150894165
      ]
    },
    {
      "bufferView": 32,
      "componentType": 5126,
      "count": 7986,
      "type": "VEC3",
      "max": [
        0.99966108798980713,
        0.99999773502349854,
        0.99984431266784668
      ],
      "min": [
        -0.99997413158416748,
        -0.9999924898147583,
        -0.99999356269836426
      ]
    },
    {
      "bufferView": 33,
      "componentType": 5126,
      "count": 7986,
      "type": "VEC4",
      "max": [
        1.0,
        0.99985766410827637,
        0.97768455743789673,
        1.0
      ],
      "min": [
        -0.82722407579422,
        -0.9995463490486145,
        -0.974025309085846,
        1.0
      ]
    },
    {
      "bufferView": 34,
      "componentType": 5126,
      "count": 7986,
      "type": "VEC2",
      "max": [
        0.55846047401428223,
        0.98000001907348633
      ],
      "min": [
        0.019999999552965164,
        0.020000100135803223
      ]
    },
    {
      "bufferView": 35,
      "componentType": 5123,
      "count": 46800,
      "type": "SCALAR",
      "max": [
        7985.0
      ],
      "min": [
        0.0
      ]
    }
  ],
  "asset": {
    "version": "2.0"
  },
  "buffers": [
    {
      "uri": "fb520a37-e4de-499b-aa55-ea79ec32e07f.bin",
      "byteLength": 22142208
    }
  ],
  "bufferViews": [
    {
      "buffer": 0,
      "byteLength": 2867016
    },
    {
      "buffer": 0,
      "byteOffset": 2867016,
      "byteLength": 2867016
    },
    {
      "buffer": 0,
      "byteOffset": 5734032,
      "byteLength": 3822688
    },
    {
      "buffer": 0,
      "byteOffset": 9556720,
      "byteLength": 1911344
    },
    {
      "buffer": 0,
      "byteOffset": 11468064,
      "byteLength": 3559920
    },
    {
      "buffer": 0,
      "byteOffset": 15027984,
      "byteLength": 618324
    },
    {
      "buffer": 0,
      "byteOffset": 15646308,
      "byteLength": 618324
    },
    {
      "buffer": 0,
      "byteOffset": 16264632,
      "byteLength": 824432
    },
    {
      "buffer": 0,
      "byteOffset": 17089064,
      "byteLength": 412216
    },
    {
      "buffer": 0,
      "byteOffset": 17501280,
      "byteLength": 297300
    },
    {
      "buffer": 0,
      "byteOffset": 17798580,
      "byteLength": 295200
    },
    {
      "buffer": 0,
      "byteOffset": 18093780,
      "byteLength": 424356
    },
    {
      "buffer": 0,
      "byteOffset": 18518136,
      "byteLength": 424356
    },
    {
      "buffer": 0,
      "byteOffset": 18942492,
      "byteLength": 565808
    },
    {
      "buffer": 0,
      "byteOffset": 19508300,
      "byteLength": 282904
    },
    {
      "buffer": 0,
      "byteOffset": 19791204,
      "byteLength": 416220
    },
    {
      "buffer": 0,
      "byteOffset": 20207424,
      "byteLength": 98100
    },
    {
      "buffer": 0,
      "byteOffset": 20305524,
      "byteLength": 98100
    },
    {
      "buffer": 0,
      "byteOffset": 20403624,
      "byteLength": 130800
    },
    {
      "buffer": 0,
      "byteOffset": 20534424,
      "byteLength": 65400
    },
    {
      "buffer": 0,
      "byteOffset": 20599824,
      "byteLength": 95952
    },
    {
      "buffer": 0,
      "byteOffset": 20695776,
      "byteLength": 99144
    },
    {
      "buffer": 0,
      "byteOffset": 20794920,
      "byteLength": 99144
    },
    {
      "buffer": 0,
      "byteOffset": 20894064,
      "byteLength": 132192
    },
    {
      "buffer": 0,
      "byteOffset": 21026256,
      "byteLength": 66096
    },
    {
      "buffer": 0,
      "byteOffset": 21092352,
      "byteLength": 96000
    },
    {
      "buffer": 0,
      "byteOffset": 21188352,
      "byteLength": 95832
    },
    {
      "buffer": 0,
      "byteOffset": 21284184,
      "byteLength": 95832
    },
    {
      "buffer": 0,
      "byteOffset": 21380016,
      "byteLength": 127776
    },
    {
      "buffer": 0,
      "byteOffset": 21507792,
      "byteLength": 63888
    },
    {
      "buffer": 0,
      "byteOffset": 21571680,
      "byteLength": 93600
    },
    {
      "buffer": 0,
      "byteOffset": 21665280,
      "byteLength": 95832
    },
    {
      "buffer": 0,
      "byteOffset": 21761112,
      "byteLength": 95832
    },
    {
      "buffer": 0,
      "byteOffset": 21856944,
      "byteLength": 127776
    },
    {
      "buffer": 0,
      "byteOffset": 21984720,
      "byteLength": 63888
    },
    {
      "buffer": 0,
      "byteOffset": 22048608,
      "byteLength": 93600
    }
  ],
  "images": [
    {
      "uri": "NORMAL_Cloth00.png",
      "name": "NORMAL_Cloth"
    },
    {
      "uri": "TEX_Cloth_Brown11.png",
      "name": "TEX_Cloth_Brown"
    }
  ],
  "materials": [
    {
      "pbrMetallicRoughness": {
        "baseColorTexture": {
          "index": 1
        },
        "metallicFactor": 0.0
      },
      "normalTexture": {
        "index": 0
      },
      "name": "Renforce_Brown"
    }
  ],
  "meshes": [
    {
      "primitives": [
        {
          "attributes": {
            "POSITION": 0,
            "NORMAL": 1,
            "TANGENT": 2,
            "TEXCOORD_0": 3
          },
          "indices": 4,
          "material": 0
        }
      ],
      "name": "Cover"
    },
    {
      "primitives": [
        {
          "attributes": {
            "POSITION": 5,
            "NORMAL": 6,
            "TANGENT": 7,
            "TEXCOORD_0": 8
          },
          "indices": 9,
          "material": 0
        },
        {
          "attributes": {
            "POSITION": 5,
            "NORMAL": 6,
            "TANGENT": 7,
            "TEXCOORD_0": 8
          },
          "indices": 10,
          "material": 0
        }
      ],
      "name": "Quilt"
    },
    {
      "primitives": [
        {
          "attributes": {
            "POSITION": 11,
            "NORMAL": 12,
            "TANGENT": 13,
            "TEXCOORD_0": 14
          },
          "indices": 15,
          "material": 0
        }
      ],
      "name": "FittedSheeet"
    },
    {
      "primitives": [
        {
          "attributes": {
            "POSITION": 16,
            "NORMAL": 17,
            "TANGENT": 18,
            "TEXCOORD_0": 19
          },
          "indices": 20,
          "material": 0
        }
      ],
      "name": "PillowRB"
    },
    {
      "primitives": [
        {
          "attributes": {
            "POSITION": 21,
            "NORMAL": 22,
            "TANGENT": 23,
            "TEXCOORD_0": 24
          },
          "indices": 25,
          "material": 0
        }
      ],
      "name": "PillowLB"
    },
    {
      "primitives": [
        {
          "attributes": {
            "POSITION": 26,
            "NORMAL": 27,
            "TANGENT": 28,
            "TEXCOORD_0": 29
          },
          "indices": 30,
          "material": 0
        }
      ],
      "name": "PillowLT"
    },
    {
      "primitives": [
        {
          "attributes": {
            "POSITION": 31,
            "NORMAL": 32,
            "TANGENT": 33,
            "TEXCOORD_0": 34
          },
          "indices": 35,
          "material": 0
        }
      ],
      "name": "PillowRT"
    }
  ],
  "nodes": [
    {
      "children": [
        1,
        2,
        3,
        4,
        5,
        6,
        7
      ],
      "rotation": [
        0.0,
        -1.0,
        0.0,
        0.0
      ],
      "scale": [
        1.7,
        1.7,
        1.7
      ],
      "translation": [
        0.0,
        0.0,
        2.46
      ],
      "name": "Bed"
    },
    {
      "mesh": 0,
      "rotation": [
        -0.7071068,
        0.0,
        0.0,
        0.7071068
      ],
      "name": "Cover"
    },
    {
      "mesh": 1,
      "rotation": [
        -0.7071068,
        0.0,
        0.0,
        0.7071068
      ],
      "name": "Quilt"
    },
    {
      "mesh": 2,
      "rotation": [
        -0.7071068,
        0.0,
        0.0,
        0.7071068
      ],
      "name": "FittedSheeet"
    },
    {
      "mesh": 3,
      "rotation": [
        -0.7071068,
        0.0,
        0.0,
        0.7071068
      ],
      "name": "PillowRB"
    },
    {
      "mesh": 4,
      "rotation": [
        -0.7071068,
        0.0,
        0.0,
        0.7071068
      ],
      "name": "PillowLB"
    },
    {
      "mesh": 5,
      "rotation": [
        -0.7071068,
        0.0,
        0.0,
        0.7071068
      ],
      "name": "PillowLT"
    },
    {
      "mesh": 6,
      "rotation": [
        -0.7071068,
        0.0,
        0.0,
        0.7071068
      ],
      "name": "PillowRT"
    }
  ],
  "samplers": [
    {
      "minFilter": 9987
    }
  ],
  "scene": 0,
  "scenes": [
    {
      "nodes": [
        0
      ],
      "name": "fb520a37-e4de-499b-aa55-ea79ec32e07f"
    }
  ],
  "textures": [
    {
      "sampler": 0,
      "source": 0,
      "name": "NORMAL_Cloth"
    },
    {
      "sampler": 0,
      "source": 1,
      "name": "TEX_Cloth_Brown"
    }
  ]
}